<svg width="30" height="30" viewBox="0 0 30 30" fill="none" xmlns="http://www.w3.org/2000/svg">
<path d="M17.5013 24.5003L8.16797 15.167M17.5013 35.0003V16.3337V35.0003ZM17.5013 17.5003V24.5003V17.5003ZM17.5013 17.5003C17.5013 15.025 16.518 12.651 14.7676 10.9007C13.0173 9.15032 10.6433 8.16699 8.16797 8.16699H1.16797V15.167C1.16797 17.6423 2.1513 20.0163 3.90164 21.7667C5.65198 23.517 8.02595 24.5003 10.5013 24.5003H17.5013V17.5003ZM17.5013 17.5003H24.5013C26.9767 17.5003 29.3506 16.517 31.101 14.7667C32.8513 13.0163 33.8346 10.6423 33.8346 8.16699V1.16699H26.8346C24.3593 1.16699 21.9853 2.15032 20.235 3.90066C18.4846 5.651 17.5013 8.02497 17.5013 10.5003V17.5003ZM17.5013 17.5003L26.8346 8.16699L17.5013 17.5003Z" stroke="#94333A" stroke-width="2"/>
</svg>
