<svg width="50" height="50" viewBox="0 0 50 50" fill="none" xmlns="http://www.w3.org/2000/svg">
<path d="M49.4526 23.8913L26.0157 0.454352C25.723 0.163343 25.327 0 24.9142 0C24.5014 0 24.1054 0.163343 23.8126 0.454352L0.375705 23.8913C0.119733 24.1902 -0.0140237 24.5747 0.00116526 24.9679C0.0163542 25.3611 0.17937 25.7342 0.457636 26.0124C0.735902 26.2907 1.10892 26.4537 1.50216 26.4689C1.89539 26.4841 2.27988 26.3503 2.57878 26.0944L24.9064 3.76677L47.2339 26.11C47.5328 26.3659 47.9173 26.4997 48.3106 26.4845C48.7038 26.4693 49.0768 26.3063 49.3551 26.028C49.6334 25.7498 49.7964 25.3768 49.8116 24.9835C49.8267 24.5903 49.693 24.2058 49.437 23.9069L49.4526 23.8913Z" fill="#94333A"/>
<path d="M40.5304 46.8749H32.7181V31.2503H17.0935V46.8749H9.28117V25.0005L6.15625 28.1254V46.8749C6.15625 47.7037 6.48548 48.4986 7.07152 49.0846C7.65756 49.6706 8.45239 49.9999 9.28117 49.9999H20.2184V34.3752H29.5932V49.9999H40.5304C41.3592 49.9999 42.154 49.6706 42.7401 49.0846C43.3261 48.4986 43.6553 47.7037 43.6553 46.8749V27.7504L40.5304 24.6255V46.8749Z" fill="#94333A"/>
</svg>
