<svg width="47" height="50" viewBox="0 0 47 50" fill="none" xmlns="http://www.w3.org/2000/svg">
<path fill-rule="evenodd" clip-rule="evenodd" d="M46.1347 0.234009C46.361 0.373993 46.5479 0.569467 46.6775 0.801899C46.8071 1.03433 46.8752 1.29602 46.8753 1.56214V48.4375C46.8753 48.8519 46.7107 49.2493 46.4177 49.5424C46.1247 49.8354 45.7272 50 45.3128 50H35.9378C35.5234 50 35.1259 49.8354 34.8329 49.5424C34.5399 49.2493 34.3753 48.8519 34.3753 48.4375V43.75H31.2502V48.4375C31.2502 48.8519 31.0856 49.2493 30.7926 49.5424C30.4996 49.8354 30.1021 50 29.6877 50H1.56251C1.14811 50 0.750677 49.8354 0.457649 49.5424C0.164621 49.2493 0 48.8519 0 48.4375V31.2499C0.000248898 30.9221 0.103589 30.6026 0.295393 30.3368C0.487197 30.071 0.757749 29.8722 1.06876 29.7686L18.7501 23.8748V14.0622C18.7501 13.7723 18.8308 13.4881 18.9832 13.2414C19.1355 12.9947 19.3534 12.7952 19.6126 12.6653L44.6128 0.165259C44.8513 0.0459012 45.1163 -0.010442 45.3827 0.00159214C45.6491 0.0136262 45.908 0.0936371 46.1347 0.234009ZM18.7501 27.1686L3.12502 32.3749V46.875H18.7501V27.1686ZM21.8752 46.875H28.1252V42.1874C28.1252 41.773 28.2898 41.3756 28.5829 41.0826C28.8759 40.7896 29.2733 40.6249 29.6877 40.6249H35.9378C36.3522 40.6249 36.7496 40.7896 37.0426 41.0826C37.3357 41.3756 37.5003 41.773 37.5003 42.1874V46.875H43.7503V4.09029L21.8752 15.0279V46.875Z" fill="#94333A"/>
<path d="M6.25 34.3752H9.37502V37.5002H6.25V34.3752ZM12.5 34.3752H15.6251V37.5002H12.5V34.3752ZM6.25 40.6252H9.37502V43.7503H6.25V40.6252ZM12.5 40.6252H15.6251V43.7503H12.5V40.6252ZM25.0001 28.1251H28.1252V31.2502H25.0001V28.1251ZM31.2502 28.1251H34.3752V31.2502H31.2502V28.1251ZM25.0001 34.3752H28.1252V37.5002H25.0001V34.3752ZM31.2502 34.3752H34.3752V37.5002H31.2502V34.3752ZM37.5002 28.1251H40.6253V31.2502H37.5002V28.1251ZM37.5002 34.3752H40.6253V37.5002H37.5002V34.3752ZM25.0001 21.8751H28.1252V25.0001H25.0001V21.8751ZM31.2502 21.8751H34.3752V25.0001H31.2502V21.8751ZM37.5002 21.8751H40.6253V25.0001H37.5002V21.8751ZM25.0001 15.625H28.1252V18.7501H25.0001V15.625ZM31.2502 15.625H34.3752V18.7501H31.2502V15.625ZM37.5002 15.625H40.6253V18.7501H37.5002V15.625ZM37.5002 9.375H40.6253V12.5H37.5002V9.375Z" fill="#94333A"/>
</svg>
