<svg width="50" height="50" viewBox="0 0 50 50" fill="none" xmlns="http://www.w3.org/2000/svg">
<path d="M6.49213 2.31187e-08C5.28492 -0.000119797 4.1242 0.465519 3.25177 1.29992C2.37933 2.13432 1.86245 3.27315 1.8088 4.47917L0.00463217 45.1042C-0.0235001 45.7365 0.0767294 46.368 0.299277 46.9606C0.521824 47.5531 0.862079 48.0945 1.29952 48.552C1.73696 49.0095 2.26253 49.3736 2.84453 49.6225C3.42653 49.8714 4.05291 49.9998 4.68588 50H12.7359C13.369 50.0001 13.9956 49.8719 14.5779 49.6231C15.1601 49.3744 15.6859 49.0103 16.1236 48.5527C16.5613 48.0952 16.9017 47.5538 17.1244 46.9611C17.3471 46.3684 17.4474 45.7367 17.4192 45.1042L15.613 4.47917C15.5593 3.27315 15.0424 2.13432 14.17 1.29992C13.2976 0.465519 12.1368 -0.000119797 10.9296 2.31187e-08H6.49213ZM4.92963 4.61875C4.94735 4.21638 5.11976 3.83639 5.41089 3.55808C5.70202 3.27976 6.08937 3.12461 6.49213 3.125H10.9296C11.3324 3.12461 11.7197 3.27976 12.0109 3.55808C12.302 3.83639 12.4744 4.21638 12.4921 4.61875L14.2963 45.2437C14.3056 45.4545 14.2721 45.6649 14.1979 45.8623C14.1236 46.0598 14.0102 46.2401 13.8644 46.3926C13.7186 46.545 13.5434 46.6663 13.3495 46.7492C13.1555 46.8321 12.9468 46.8749 12.7359 46.875H4.68588C4.47495 46.8749 4.26622 46.8321 4.07227 46.7492C3.87832 46.6663 3.70316 46.545 3.55736 46.3926C3.41155 46.2401 3.29812 46.0598 3.22389 45.8623C3.14967 45.6649 3.11618 45.4545 3.12547 45.2437L4.93172 4.61875H4.92963ZM17.6234 50C18.4484 49.1417 19.0463 48.0687 19.3275 46.875H22.7734V32.8125C22.7734 31.375 23.94 30.2083 25.3775 30.2083H39.9609C41.3984 30.2083 42.565 31.375 42.565 32.8125V46.875H44.1275C45.565 46.875 46.7317 45.7083 46.7317 44.2708V13.4208L32.6775 26.1583C32.4534 26.3617 32.175 26.4957 31.8762 26.5438C31.5773 26.592 31.2709 26.5523 30.9942 26.4296C30.7175 26.3069 30.4824 26.1065 30.3174 25.8527C30.1525 25.5989 30.0648 25.3027 30.065 25V13.4208L18.5588 23.8479L18.3796 19.7938L30.5796 8.7375C30.8039 8.53477 31.0821 8.40143 31.3806 8.35364C31.679 8.30586 31.985 8.34569 32.2613 8.46829C32.5376 8.5909 32.7724 8.79102 32.9373 9.0444C33.1021 9.29779 33.1899 9.59355 33.19 9.89583V21.475L47.2463 8.7375C47.4705 8.53477 47.7487 8.40143 48.0472 8.35364C48.3457 8.30586 48.6516 8.34569 48.928 8.46829C49.2043 8.5909 49.4391 8.79102 49.6039 9.0444C49.7688 9.29779 49.8566 9.59355 49.8567 9.89583V44.2708C49.8567 45.7903 49.2531 47.2475 48.1787 48.322C47.1043 49.3964 45.647 50 44.1275 50H17.6213H17.6234ZM25.9005 46.875H39.44V33.3333H25.8984V46.875H25.9005Z" fill="#94333A"/>
</svg>
