<svg width="32" height="35" viewBox="0 0 32 35" fill="none" xmlns="http://www.w3.org/2000/svg">
<path d="M21.25 31.4748L18.0125 28.2373L16.25 29.9998L21.25 34.9998L31.25 24.9998L29.4875 23.2373L21.25 31.4748Z" fill="#94333A"/>
<path d="M25 3.75H21.25V2.5C21.248 1.83757 20.984 1.20283 20.5156 0.734419C20.0472 0.266006 19.4124 0.00197841 18.75 0H8.75C8.08757 0.00197841 7.45283 0.266006 6.98442 0.734419C6.51601 1.20283 6.25198 1.83757 6.25 2.5V3.75H2.5C1.83757 3.75198 1.20283 4.01601 0.734419 4.48442C0.266006 4.95283 0.00197841 5.58757 0 6.25V32.5C0.00197841 33.1624 0.266006 33.7972 0.734419 34.2656C1.20283 34.734 1.83757 34.998 2.5 35H13.75V32.5H2.5V6.25H6.25V10H21.25V6.25H25V20H27.5V6.25C27.498 5.58757 27.234 4.95283 26.7656 4.48442C26.2972 4.01601 25.6624 3.75198 25 3.75ZM18.75 7.5H8.75V2.5H18.75V7.5Z" fill="#94333A"/>
</svg>
