<svg width="47" height="35" viewBox="0 0 47 35" fill="none" xmlns="http://www.w3.org/2000/svg">
<path d="M17.5 15.9978C19.8206 15.9978 21.6924 15.1387 23.3333 13.4978C24.9743 11.8569 25.5 10.3185 25.5 7.99781C25.5 5.67716 24.9743 4.05542 23.3333 2.41447C21.6924 0.77353 19.8206 0 17.5 0C15.1794 0 13.3076 0.77353 11.6667 2.41447C10.0257 4.05542 9.5 5.92716 9.5 8.24781C9.5 10.5685 10.0257 11.8569 11.6667 13.4978C13.3076 15.1387 15.1794 15.9978 17.5 15.9978ZM23.3333 8.24781C23.3333 9.7949 22.7188 11.2786 21.6248 12.3726C20.5308 13.4666 19.0471 14.0811 17.5 14.0811C15.9529 14.0811 14.4692 13.4666 13.3752 12.3726C12.2812 11.2786 11.6667 9.7949 11.6667 8.24781C11.6667 6.70071 12.2812 5.21698 13.3752 4.12302C14.4692 3.02905 15.9529 2.41447 17.5 2.41447C19.0471 2.41447 20.5308 3.02905 21.6248 4.12302C22.7188 5.21698 23.3333 6.70071 23.3333 8.24781ZM35 31.5811C35 34.4978 32 33.9978 32 33.9978H2.5C2.5 33.9978 0 34.4978 0 31.5811C0 28.6645 2.91667 19.9145 17.5 19.9145C32.0833 19.9145 35 28.6645 35 31.5811ZM32.5 31.5811C32.4971 30.8636 31.9775 27.9753 30 25.9978C28.0983 24.0961 24.1763 21.9978 17.5 21.9978C10.8208 21.9978 6.90167 24.0961 5 25.9978C3.0225 27.9753 2.00583 30.8636 2 31.5811H32.5Z" fill="#94333A"/>
<path fill-rule="evenodd" clip-rule="evenodd" d="M46.5003 8.99948C46.6361 9.13495 46.4826 8.96981 46.5561 9.14698C46.6297 9.32415 46.6675 9.51409 46.6675 9.70591C46.6675 9.89773 46.6297 10.0877 46.5561 10.2648C46.4826 10.442 46.3749 10.6029 46.239 10.7384L37.4891 19.4884C37.3536 19.6242 37.1927 19.732 37.0155 19.8055C36.8383 19.879 36.6484 19.9168 36.4566 19.9168C36.2647 19.9168 36.0748 19.879 35.8976 19.8055C35.7204 19.732 35.5595 19.6242 35.4241 19.4884L31.0491 15.1134C30.7752 14.8396 31 14.9995 30.5001 14.4995C30.252 14.2519 30.2271 13.7733 30.5009 13.4995C30.7747 13.2257 31.113 12.9995 31.5003 12.9995C31.8875 12.9995 32.2264 13.2257 32.5003 13.4995L36.4566 17.4998L44.6476 8.99985C44.7831 8.86404 44.8231 8.74693 45.0003 8.67341C45.1774 8.59989 45.3085 8.50029 45.5003 8.50029C45.6921 8.50029 45.8231 8.42633 46.0003 8.49984C46.1774 8.57336 46.3648 8.86367 46.5003 8.99948Z" fill="#94333A"/>
</svg>
