<svg width="42" height="37" viewBox="0 0 42 37" fill="none" xmlns="http://www.w3.org/2000/svg">
    <path d="M3.24609 17.734V10.4602C3.24609 9.91831 3.46136 9.39861 3.84454 9.01543C4.22771 8.63226 4.74741 8.41699 5.28931 8.41699H38.798C39.3399 8.41699 39.8596 8.63226 40.2428 9.01543C40.6259 9.39861 40.8412 9.91831 40.8412 10.4602V33.9572C40.8412 34.4991 40.6259 35.0187 40.2428 35.4019C39.8596 35.7851 39.3399 36.0004 38.798 36.0004H5.28931C4.74741 36.0004 4.22771 35.7851 3.84454 35.4019C3.46136 35.0187 3.24609 34.4991 3.24609 33.9572V26.6731" stroke="#94333A" stroke-width="2" stroke-linecap="round" stroke-linejoin="round"/>
    <path d="M2.02161 17.7334H13.7701C14.312 17.7334 14.8317 17.9487 15.2149 18.3318C15.598 18.715 15.8133 19.2347 15.8133 19.7766V24.6292C15.8133 25.1711 15.598 25.6908 15.2149 26.074C14.8317 26.4572 14.312 26.6725 13.7701 26.6725H2.02161C1.75066 26.6725 1.49081 26.5648 1.29922 26.3732C1.10763 26.1816 1 25.9218 1 25.6508V18.755C1 18.4841 1.10763 18.2242 1.29922 18.0326C1.49081 17.841 1.75066 17.7334 2.02161 17.7334Z" stroke="#94333A" stroke-width="2" stroke-linecap="round" stroke-linejoin="round"/>
    <path d="M11.2034 24.2515C12.3318 24.2515 13.2466 23.3367 13.2466 22.2083C13.2466 21.0798 12.3318 20.165 11.2034 20.165C10.0749 20.165 9.16016 21.0798 9.16016 22.2083C9.16016 23.3367 10.0749 24.2515 11.2034 24.2515Z" stroke="#94333A" stroke-width="2" stroke-linecap="round" stroke-linejoin="round"/>
    <path d="M35.343 8.41686L9.87434 1L7.71875 8.41686" stroke="#94333A" stroke-width="2" stroke-linecap="round" stroke-linejoin="round"/>
</svg>
